<svg width="229" height="74" viewBox="0 0 229 74" fill="none" xmlns="http://www.w3.org/2000/svg">
<path d="M0.6875 48V0.799997H3.0875V48H0.6875ZM5.4875 48V0.799997H12.6875V48H5.4875ZM15.0875 48V0.799997H17.4875V48H15.0875ZM19.8875 48V0.799997H27.0875V48H19.8875ZM34.2875 48V0.799997H36.6875V48H34.2875ZM19.8075 73.84C17.4075 73.84 15.4608 73.04 13.9675 71.44L15.0875 69.6L15.1675 69.36L15.4075 69.44C15.4075 69.4933 15.4342 69.6 15.4875 69.76C15.4875 69.8667 15.5408 70 15.6475 70.16C15.7008 70.2667 15.8075 70.3733 15.9675 70.48C17.0875 71.44 18.4742 71.92 20.1275 71.92C21.1942 71.92 22.1008 71.6267 22.8475 71.04C23.5942 70.4 23.9675 69.6533 23.9675 68.8C23.9675 68.2133 23.8342 67.7067 23.5675 67.28C23.3542 66.9067 22.9542 66.5333 22.3675 66.16C21.7808 65.7867 20.8742 65.3333 19.6475 64.8C17.8342 64.1067 16.5275 63.3067 15.7275 62.4C14.9808 61.4933 14.6075 60.48 14.6075 59.36C14.6075 57.9733 15.1142 56.8533 16.1275 56C17.1408 55.1467 18.5008 54.72 20.2075 54.72C21.2208 54.72 22.1808 54.9333 23.0875 55.36C23.9408 55.7867 24.7142 56.3467 25.4075 57.04L24.0475 58.88L23.8875 58.72C23.8875 58.6667 23.8608 58.5867 23.8075 58.48C23.8075 58.32 23.7542 58.1867 23.6475 58.08C23.5942 57.92 23.4875 57.7867 23.3275 57.68C22.9008 57.2533 22.3942 56.9333 21.8075 56.72C21.2742 56.56 20.6342 56.48 19.8875 56.48C18.9275 56.48 18.1808 56.7467 17.6475 57.28C17.0608 57.8133 16.7675 58.4533 16.7675 59.2C16.7675 59.7867 16.8742 60.2933 17.0875 60.72C17.3542 61.1467 17.8075 61.5467 18.4475 61.92C19.0875 62.3467 20.0475 62.8 21.3275 63.28C23.0875 64.0267 24.3142 64.7733 25.0075 65.52C25.6475 66.32 25.9675 67.3067 25.9675 68.48C25.9675 69.3867 25.7542 70.24 25.3275 71.04C24.8475 71.84 24.1542 72.5067 23.2475 73.04C22.2875 73.5733 21.1408 73.84 19.8075 73.84ZM39.125 48V0.799997H41.525V48H39.125ZM43.925 48V0.799997H46.325V48H43.925ZM48.725 48V0.799997H55.925V48H48.725ZM58.325 48V0.799997H65.525V48H58.325ZM72.725 48V0.799997H75.125V48H72.725ZM57.045 56.8H51.845V54.96H64.645V56.8H59.205V73.52H57.045V56.8ZM77.5625 48V0.799997H84.7625V48H77.5625ZM91.9625 48V0.799997H94.3625V48H91.9625ZM96.7625 48V0.799997H99.1625V48H96.7625ZM101.563 48V0.799997H103.963V48H101.563ZM106.363 48V0.799997H113.563V48H106.363ZM96.7625 73.84C94.8425 73.84 93.3758 73.2533 92.3625 72.08C91.3492 70.9067 90.8425 69.2533 90.8425 67.12V54.96H93.1625V55.2C93.0025 55.3067 92.9225 55.44 92.9225 55.6C92.8692 55.7067 92.8425 55.9467 92.8425 56.32V67.12C92.8425 68.72 93.1625 69.9467 93.8025 70.8C94.3892 71.6533 95.4025 72.08 96.8425 72.08C98.2292 72.08 99.2425 71.6533 99.8825 70.8C100.523 69.9467 100.843 68.6933 100.843 67.04V54.96H102.843V67.04C102.843 69.3333 102.309 71.04 101.243 72.16C100.176 73.28 98.6825 73.84 96.7625 73.84ZM116 48V0.799997H118.4V48H116ZM120.8 48V0.799997H123.2V48H120.8ZM125.6 48V0.799997H132.8V48H125.6ZM140 48V0.799997H142.4V48H140ZM144.8 48V0.799997H152V48H144.8ZM129.36 54.96H133.68C135.227 54.96 136.427 55.1733 137.28 55.6C138.187 56.0267 138.96 56.6667 139.6 57.52C140.827 59.12 141.44 61.3867 141.44 64.32C141.333 67.36 140.64 69.6533 139.36 71.2C138.08 72.8 136.08 73.5733 133.36 73.52H129.36V54.96ZM133.2 71.92C137.307 71.92 139.36 69.44 139.36 64.48C139.36 61.9733 138.907 60.0533 138 58.72C137.04 57.3867 135.547 56.72 133.52 56.72H131.36V71.92H133.2ZM154.438 48V0.799997H156.838V48H154.438ZM159.238 48V0.799997H166.438V48H159.238ZM168.838 48V0.799997H171.238V48H168.838ZM178.438 48V0.799997H185.638V48H178.438ZM188.038 48V0.799997H190.438V48H188.038ZM168.598 71.76H172.278V56.72H168.838V54.96H178.038V56.72H174.358V71.76H178.198V73.52H168.598V71.76ZM192.875 48V0.799997H200.075V48H192.875ZM202.475 48V0.799997H204.875V48H202.475ZM207.275 48V0.799997H209.675V48H207.275ZM216.875 48V0.799997H219.275V48H216.875ZM221.675 48V0.799997H228.875V48H221.675ZM215.035 68.08H209.035L207.195 73.52H205.115L211.915 54.64H212.155L219.035 73.52H216.875L215.035 68.08ZM214.475 66.48L212.075 59.44L209.595 66.48H214.475Z" fill="#006652"/>
</svg>
